<?xml version="1.0" encoding="utf-8"?>
<!-- Generator: Adobe Illustrator 19.1.1, SVG Export Plug-In . SVG Version: 6.00 Build 0)  -->
<svg version="1.1" id="Calque_1" xmlns="http://www.w3.org/2000/svg" xmlns:xlink="http://www.w3.org/1999/xlink" x="0px" y="0px"
	 viewBox="149 281 316 230" style="enable-background:new 149 281 316 230;" xml:space="preserve">
<style type="text/css">
	.st0{fill:#1D8CF8;}
</style>
<g>
	<path class="st0" d="M204.9,453c0.2,0.5,0.3,1.1,0.6,1.6c4,5.6,8.9,10.3,14.3,14.5c4.3,3.3,8.9,6.3,13.8,8.7c3.9,1.9,8,3.5,12,5.1
		c1.2,0.5,2.4,0.8,3.5,1.3c0.8,0.3,1,0.6,0.4,1.4c-4.4,5.5-8.8,11-13.3,16.5c-0.7,0.9-1.5,1.8-2.2,2.7c-0.8,1-1.8,0.6-2.8,0.6
		c-0.7,0-1.4-0.1-2.1-0.2c-2.6-0.2-5.2-0.2-7.8-0.5c-3.2-0.4-6.3-1-9.4-1.7c-3.1-0.7-6.1-1.6-9.2-2.4c-5.6-1.6-11-3.8-16.2-6.4
		c-6.2-3.2-12-7-17.4-11.4c-5.2-4.4-9.9-9.3-14-14.7c-1.6-2.1-1.3-4.4-1.2-6.7c0.1-2.6,0.3-5.1,0.4-7.7c0.2-4.1,0.2-8.2,0.6-12.3
		c0.4-4.2,1.1-8.3,1.6-12.4c0.2-1.9,0.3-3.9,0.5-5.8c0.3-2,0.7-4,1-6.1c0.4-2.4,0.7-4.7,1.1-7.1c0.4-2.2,0.9-4.4,1.4-6.6
		c0.3-1.3,0.5-2.7,0.8-4.1c0.4-1.9,0.9-3.8,1.4-5.7c0.4-1.9,0.8-3.8,1.3-5.7c0.4-1.7,0.9-3.3,1.3-5c0.8-2.9,1.6-5.8,2.5-8.7
		c0.8-2.7,1.6-5.3,2.4-8c0.8-2.5,1.6-5.1,2.4-7.6c0.9-2.6,1.8-5.2,2.8-7.8c1.2-3.1,2.4-6.2,3.6-9.3c1.5-3.7,2.9-7.4,4.5-11
		c1.8-4.1,3.8-8.1,5.7-12.2c0.6-1.3,1.3-2.5,1.9-3.8c0.9-2,2.9-2.8,4.5-3.9c3.4-2.4,6.9-4.7,10.5-6.7c4.6-2.5,9.3-4.9,14.1-7.1
		c3.8-1.7,7.7-3.2,11.6-4.6c2.1-0.8,4.3-1.3,6.4-1.9c2.4-0.7,4.8-1.3,7.3-1.9c1.4-0.3,2.8-0.5,4.2-0.7s2.8-0.6,4.2-0.7
		c3.5-0.4,7.1-0.7,10.7-0.8c0.6,0,1.3,1.2,1.9,1.9c0,0-0.2,0.4-0.4,0.5c-2.4,0.8-4.8,1.5-7.2,2.2c-1.8,0.6-3.7,1.2-5.4,1.9
		c-4.8,1.8-9.6,3.6-14.3,5.6c-4.1,1.8-8.2,3.6-12.2,5.7c-5.1,2.7-10.1,5.7-15.1,8.6c-4.5,2.7-8.8,5.8-12.7,9.3
		c-0.3,0.3-0.4,0.7-0.7,1c0.1,0.1,0.2,0.3,0.3,0.4c1.1-0.5,2.3-1,3.4-1.6c4.8-2.3,9.6-4.6,14.4-6.8c3.7-1.7,7.5-3.2,11.3-4.6
		c4-1.5,8-2.7,12.1-4c2.8-0.9,5.7-1.8,8.6-2.5c2.6-0.7,5.3-1.2,7.9-1.8c2.3-0.5,4.6-1,6.9-1.4c1.9-0.3,3.8-0.5,5.8-0.7
		c3.2-0.4,6.4-0.7,9.6-1c3.6-0.4,7.3-0.9,10.9-1.2c3.1-0.3,6.2-0.4,9.3-0.5c3.5-0.2,7.1-0.5,10.6-0.4c4.6,0.1,9.1,0.4,13.7,0.7
		c3.4,0.2,6.9,0.6,10.3,1c3.1,0.4,6.2,1,9.3,1.5c2.3,0.4,4.6,0.7,6.9,1.2c1.9,0.4,3.7,0.8,5.5,1.3c2.4,0.6,4.8,1.2,7.2,1.8
		c2.8,0.8,5.6,1.5,8.4,2.4c3.5,1.1,6.9,2.3,10.4,3.6c3.8,1.4,7.6,2.9,11.3,4.5c3.7,1.6,7.3,3.4,10.9,5.1c1.9,0.9,3.8,2,5.7,2.9
		c0.5,0.2,1.1,0.2,1.6,0.3c0.1-0.2,0.1-0.3,0.2-0.5c-1-0.9-1.8-1.9-2.9-2.6c-4.8-3.4-9.6-6.8-14.6-9.9c-4.2-2.6-8.6-5.1-13-7.2
		c-5.9-2.8-12-5.4-18-7.9c-3.1-1.3-6.4-2.5-9.6-3.7c-2-0.7-4.1-1.3-6.4-2c0.2-0.4,0.4-0.8,0.6-1.1c1.2-2,3-2.6,5.2-2.3
		c2.8,0.4,5.7,0.8,8.6,1.1c1.5,0.2,3,0.3,4.5,0.6c2,0.4,3.9,0.8,5.9,1.3c3,0.8,5.9,1.6,8.8,2.5c4.5,1.5,9,3.1,13.3,5
		c3.8,1.6,7.4,3.4,11,5.4c6.1,3.2,11.9,7,17.5,11.2c0.3,0.3,0.6,0.6,0.8,1c1.8,3.6,3.7,7.2,5.3,10.9c2.4,5.3,4.6,10.6,6.8,16
		c1.7,4.1,3.1,8.3,4.6,12.5c1,2.8,2.1,5.6,3,8.4c0.8,2.5,1.5,5.1,2.3,7.7c0.6,2.1,1.4,4.1,2,6.1c0.7,2.2,1.2,4.4,1.8,6.6
		c0.5,1.7,0.9,3.4,1.3,5.1c0.5,2,0.9,4,1.4,6c0.5,2.1,1,4.2,1.5,6.3c0.8,4,1.6,8,2.4,12c0.7,3.8,1.3,7.6,1.9,11.4
		c0.3,2.3,0.5,4.6,0.8,6.8c0.5,4,1,7.9,1.4,11.9c0.2,1.8,0.2,3.7,0.3,5.5c0.2,5.5,0,11,0.6,16.4c0.4,3.3-1.6,5.1-3.2,7.1
		c-2,2.6-4.4,5-6.8,7.4c-5.2,5.2-11.1,9.7-17.5,13.3c-3.8,2.2-7.8,4.2-11.9,5.9c-4,1.7-8.2,3.1-12.3,4.3c-3.5,1-7.2,1.6-10.9,2.3
		c-3.2,0.6-6.4,1-9.6,1.4c-0.1,0-0.2,0-0.2,0c-2.1,0.1-4.1,0.1-6.2,0.2c-0.8,0-1.3-0.1-1.8-0.8c-3-3.8-6.1-7.5-9.2-11.2
		c-2-2.5-4-5-6.1-7.5c-0.1-0.2-0.2-0.4-0.5-0.7c1.7-0.6,3.2-1.1,4.8-1.7c2.6-1,5.2-1.9,7.7-2.9c5.8-2.4,11.1-5.5,16.2-9
		c4.9-3.4,9.5-7.3,13.5-11.7c1.5-1.6,2.8-3.4,4.1-5.1c0.2-0.3,0.2-0.8,0.2-1.2c-0.4,0-0.9-0.1-1.3,0.1c-3.6,2.1-7.1,4.4-10.7,6.3
		c-4.1,2.2-8.4,4.2-12.7,6.1c-3.7,1.7-7.5,3.2-11.3,4.7c-3.3,1.3-6.7,2.4-10.1,3.5c-2.6,0.9-5.3,1.7-8,2.4c-2.6,0.7-5.3,1.3-7.9,1.9
		c-2.3,0.5-4.5,1-6.8,1.4c-1.7,0.3-3.4,0.5-5.1,0.8c-3.4,0.5-6.8,1-10.2,1.4c-0.1,0-0.2,0-0.2,0c-4.2,0.2-8.4,0.4-12.6,0.5
		c-4.7,0.1-9.3,0.1-14,0c-3.2-0.1-6.3-0.6-9.4-0.9c-0.2,0-0.3,0-0.5,0c-3.1-0.4-6.1-0.7-9.2-1.1c-2.3-0.3-4.7-0.6-7-1.1
		c-2-0.4-3.9-0.9-5.9-1.3c-1.9-0.4-3.8-0.8-5.7-1.3c-2.3-0.6-4.6-1.3-6.9-2c-2.6-0.8-5.3-1.5-7.9-2.4c-3.2-1.1-6.4-2.2-9.5-3.5
		c-5.2-2.2-10.5-4.3-15.6-6.8c-3.4-1.6-6.6-3.6-9.8-5.5c-2.3-1.3-4.5-2.6-6.7-4C205.2,452.8,205,452.9,204.9,453z M398.5,427.1
		c0-2.1-0.3-3.9-1.7-5.6c-1.7-2-2.9-2.5-5.3-1.6c-1.6,0.6-3.1,1.4-4.5,2.3c-6.9,4.5-14.1,8.6-21.9,11.2c-3.4,1.2-6.9,2.3-10.3,3.4
		c-4.2,1.4-8.5,2.8-13,3.2c-6,0.6-12,1.2-18,1.7c-5.9,0.5-11.7,1-17.6,1c-6.6,0-13.2-0.5-19.7-1c-6.7-0.5-13.4-1.2-20-2
		c-9.3-1.2-18-4.6-26.6-8.2c-4.2-1.8-8.4-3.7-12.6-5.5c-3.2-1.3-6.5,0-7.8,3.2c-1.7,4-1.2,7.8,1.2,11.4s5.9,6,9.3,8.4
		c7.6,5.3,16.1,8.8,24.7,12.2c13.6,5.3,27.8,7.6,42.3,7.9c6.5,0.1,13.1-0.2,19.7-0.5c4.9-0.2,9.8-0.5,14.6-1.2
		c9.4-1.5,18.6-4.1,27.7-6.9c0.9-0.3,1.4-0.2,1.7,0.7c0.6,1.5,1.1,3,1.8,4.4c1.2,2.5,4.2,4,6.5,3.2c2.3-0.7,3.8-2.4,4.3-4.7
		c0.6-2.7,0.8-5.5,1.3-8.3c0.1-0.4,0.3-0.9,0.7-1.1c1.7-1,3.5-1.9,5.2-3c4.5-2.9,9.3-5.5,12.6-10
		C396.2,437.5,398.2,432.6,398.5,427.1z M344.5,393.9c-0.3,3.5,0.8,7.2,2.1,10.9c1,2.8,2.5,5.3,4.3,7.6c1,1.3,2,1.6,3.6,1.2
		c2.7-0.6,5.5-1.3,8.3-1.5c5.2-0.3,10.5,0,15.6,1.2c3.1,0.7,6.3,1.4,9,3.2c0.7,0.4,1.3,0.3,1.8-0.3c1-1,2-2.1,2.9-3.2
		c3.6-4.3,5.7-9.3,6.5-14.7c0.3-2,0.2-4.2,0.3-6.2c0.1-3.8-0.9-7.4-2.2-10.9c-1.4-3.6-3.5-6.8-6.1-9.5c-4.1-4.2-9-6.8-14.7-7.8
		c-4.2-0.8-8.5-0.3-12.5,1.1c-6.1,2.1-10.7,6.1-14.1,11.5C345.9,381.6,344.3,387.2,344.5,393.9z M268,394.5c0.3-3-0.6-6.7-1.8-10.2
		c-2.1-5.8-5.7-10.5-10.7-14.1c-3.7-2.7-7.9-4.1-12.4-4.6c-3.2-0.3-6.4,0.1-9.6,1c-4.3,1.2-7.9,3.4-11,6.5
		c-3.8,3.7-6.4,8.3-7.9,13.5c-0.8,2.9-1.2,5.8-1.2,8.7c0,2.9,0.4,5.8,1.2,8.6c1.4,5,3.9,9.3,7.5,13c0.6,0.6,1.3,1.4,2.1,1.6
		c0.7,0.1,1.5-0.6,2.2-0.9c5.4-2.3,11.2-3.3,17.1-3.6c2.7-0.1,5.3,0,8,0.2c2.2,0.2,4.4,0.7,6.6,1.3c1.4,0.4,2.7,0.2,3.4-0.9
		C265.6,408.9,268.1,402.5,268,394.5z"/>
</g>
</svg>
